<svg id="ic" xmlns="http://www.w3.org/2000/svg" width="94" height="103" viewBox="0 0 94 103">
  <defs>
    <style>
      .cls-1 {
        fill: #537983;
      }

      .cls-2 {
        fill: #f1f1f1;
      }

      .cls-3 {
        fill: #84dbff;
      }

      .cls-4 {
        fill: #fff;
      }

      .cls-5 {
        fill: #d6d6d6;
      }

      .cls-6 {
        fill: #ffdaaa;
      }

      .cls-7 {
        fill: #ebbf86;
      }

      .cls-8 {
        fill: #ff7058;
      }

      .cls-10, .cls-8 {
        fill-rule: evenodd;
      }

      .cls-9 {
        fill: #ffb655;
      }

      .cls-10 {
        fill: #4cdbc4;
        stroke: #f1f1f1;
        stroke-linejoin: round;
        stroke-width: 2px;
      }
    </style>
  </defs>
  <g id="sc_копия_2" data-name="sc копия 2">
    <rect id="Прямоугольник_2186" data-name="Прямоугольник 2186" class="cls-1" y="17" width="72" height="86" rx="4" ry="4"/>
    <rect id="Прямоугольник_2186_копия" data-name="Прямоугольник 2186 копия" class="cls-2" x="7" y="23" width="58" height="74" rx="2" ry="2"/>
    <path id="Прямоугольник_2188_копия" data-name="Прямоугольник 2188 копия" class="cls-3" d="M21,14H52a5,5,0,0,1,5,5v6a0,0,0,0,1,0,0H15a0,0,0,0,1,0,0V20A6,6,0,0,1,21,14Z"/>
    <path id="Прямоугольник_2188_копия_2" data-name="Прямоугольник 2188 копия 2" class="cls-3" d="M33,0h4a7,7,0,0,1,7,7v9a0,0,0,0,1,0,0H26a0,0,0,0,1,0,0V7A7,7,0,0,1,33,0Z"/>
    <circle id="Эллипс_2298" data-name="Эллипс 2298" class="cls-4" cx="35" cy="8" r="3"/>
    <g id="t">
      <rect id="Прямоугольник_скругл._углы2173_копия_8" data-name="Прямоугольник, скругл. углы2173 копия 8" class="cls-5" x="12" y="77" width="28" height="5" rx="2.5" ry="2.5"/>
      <rect id="Прямоугольник_скругл._углы2173_копия_9" data-name="Прямоугольник, скругл. углы2173 копия 9" class="cls-5" x="25" y="68" width="19" height="5" rx="2.5" ry="2.5"/>
      <rect id="Прямоугольник_скругл._углы2173_копия_18" data-name="Прямоугольник, скругл. углы2173 копия 18" class="cls-5" x="12" y="68" width="10" height="5" rx="2.5" ry="2.5"/>
      <rect id="Прямоугольник_скругл._углы2173_копия_10" data-name="Прямоугольник, скругл. углы2173 копия 10" class="cls-5" x="12" y="59" width="32" height="5" rx="2" ry="2"/>
      <rect id="Прямоугольник_скругл._углы2173_копия_16" data-name="Прямоугольник, скругл. углы2173 копия 16" class="cls-5" x="40" y="30" width="18" height="4" rx="2" ry="2"/>
      <rect id="Прямоугольник_скругл._углы2173_копия_17" data-name="Прямоугольник, скругл. углы2173 копия 17" class="cls-5" x="40" y="38" width="18" height="4" rx="2" ry="2"/>
    </g>
  </g>
  <g id="sc_копия_3" data-name="sc копия 3">
    <rect id="Прямоугольник_скругл._углы2213" data-name="Прямоугольник, скругл. углы2213" class="cls-6" x="50" y="47" width="44" height="44" rx="3" ry="3"/>
    <rect id="Прямоугольник_скругл._углы2217" data-name="Прямоугольник, скругл. углы2217" class="cls-7" x="55" y="79" width="16" height="2" rx="1" ry="1"/>
    <rect id="Прямоугольник_скругл._углы2217_копия" data-name="Прямоугольник, скругл. углы2217 копия" class="cls-7" x="55" y="84" width="9" height="2" rx="1" ry="1"/>
    <path id="Прямоугольник_2216" data-name="Прямоугольник 2216" class="cls-8" d="M723,1087.01h10v10.98l-5-2.5-5,2.5v-10.98Z" transform="translate(-656 -1040)"/>
  </g>
  <g id="scn">
    <rect id="Прямоугольник_скругл._углы2294" data-name="Прямоугольник, скругл. углы2294" class="cls-9" x="12" y="35" width="16" height="16" rx="2" ry="2"/>
    <path id="Фигура_2294" data-name="Фигура 2294" class="cls-10" d="M679.844,1088a2.091,2.091,0,0,1-1.525-.67L674,1082.78l3.051-3.23,2.79,2.95,7.1-7.5,3.051,3.22-8.631,9.11a2.091,2.091,0,0,1-1.525.67h0Zm0,0" transform="translate(-656 -1040)"/>
  </g>
</svg>
