<svg id="sc" xmlns="http://www.w3.org/2000/svg" width="107" height="104" viewBox="0 0 107 104">
  <defs>
    <style>
      .cls-1 {
        fill: #f4f4f4;
      }

      .cls-2, .cls-3 {
        fill: #d6d6d6;
      }

      .cls-3, .cls-4, .cls-5, .cls-7 {
        fill-rule: evenodd;
      }

      .cls-4 {
        fill: #ffb655;
      }

      .cls-5 {
        fill: #54c0eb;
      }

      .cls-6 {
        fill: #ff7058;
      }

      .cls-7 {
        fill: #fff;
      }
    </style>
  </defs>
  <rect id="Прямоугольник_скругл._углы2228" data-name="Прямоугольник, скругл. углы2228" class="cls-1" y="16" width="84" height="88" rx="5" ry="5"/>
  <g id="t">
    <rect id="Прямоугольник_скругл._углы2232" data-name="Прямоугольник, скругл. углы2232" class="cls-2" x="10" y="55" width="64" height="6" rx="2.5" ry="2.5"/>
    <rect id="Прямоугольник_скругл._углы2232_копия" data-name="Прямоугольник, скругл. углы2232 копия" class="cls-2" x="51" y="67" width="23" height="6" rx="2.5" ry="2.5"/>
    <rect id="Прямоугольник_скругл._углы2232_копия_2" data-name="Прямоугольник, скругл. углы2232 копия 2" class="cls-2" x="10" y="67" width="36" height="6" rx="2.5" ry="2.5"/>
    <rect id="Прямоугольник_скругл._углы2232_копия_4" data-name="Прямоугольник, скругл. углы2232 копия 4" class="cls-2" x="29" y="79" width="45" height="6" rx="2.5" ry="2.5"/>
    <rect id="Прямоугольник_скругл._углы2232_копия_3" data-name="Прямоугольник, скругл. углы2232 копия 3" class="cls-2" x="10" y="79" width="14" height="6" rx="2.5" ry="2.5"/>
    <rect id="Прямоугольник_скругл._углы2232_копия_5" data-name="Прямоугольник, скругл. углы2232 копия 5" class="cls-2" x="25" y="92" width="34" height="6" rx="2.5" ry="2.5"/>
    <g id="star">
      <path id="Фигура_2241_копия" data-name="Фигура 2241 копия" class="cls-3" d="M551.814,1082.24l-2.65,1.82a0.4,0.4,0,0,0-.157.46l1.012,2.95a0.424,0.424,0,0,1-.666.45l-2.65-1.81a0.434,0.434,0,0,0-.509,0l-2.649,1.81a0.425,0.425,0,0,1-.667-0.45l1.013-2.95a0.4,0.4,0,0,0-.157-0.46l-2.65-1.82a0.406,0.406,0,0,1,.255-0.74h3.275a0.427,0.427,0,0,0,.411-0.28l1.013-2.95a0.442,0.442,0,0,1,.821,0l1.014,2.95a0.426,0.426,0,0,0,.411.28h3.275A0.406,0.406,0,0,1,551.814,1082.24Z" transform="translate(-475 -1039)"/>
      <path id="Фигура_2241_копия_2" data-name="Фигура 2241 копия 2" class="cls-3" d="M537.086,1082.24l-2.651,1.82a0.4,0.4,0,0,0-.156.46l1.013,2.95a0.425,0.425,0,0,1-.667.45l-2.649-1.81a0.434,0.434,0,0,0-.509,0l-2.65,1.81a0.424,0.424,0,0,1-.666-0.45l1.012-2.95a0.4,0.4,0,0,0-.157-0.46l-2.65-1.82a0.406,0.406,0,0,1,.255-0.74h3.275a0.426,0.426,0,0,0,.411-0.28l1.013-2.95a0.443,0.443,0,0,1,.822,0l1.011,2.95a0.43,0.43,0,0,0,.412.28h3.276A0.406,0.406,0,0,1,537.086,1082.24Z" transform="translate(-475 -1039)"/>
      <path id="Фигура_2241_копия_3" data-name="Фигура 2241 копия 3" class="cls-4" d="M519.707,1084.06a0.4,0.4,0,0,0-.156.46l1.011,2.95a0.423,0.423,0,0,1-.665.45l-2.649-1.81a0.434,0.434,0,0,0-.509,0l-2.65,1.81a0.424,0.424,0,0,1-.666-0.45l1.013-2.95a0.4,0.4,0,0,0-.158-0.46l-2.65-1.82a0.406,0.406,0,0,1,.254-0.74h3.276a0.428,0.428,0,0,0,.412-0.28l1.013-2.95a0.442,0.442,0,0,1,.821,0l1.012,2.95a0.426,0.426,0,0,0,.411.28H522.1a0.406,0.406,0,0,1,.254.74Zm-14.728,0a0.4,0.4,0,0,0-.156.46l1.012,2.95a0.424,0.424,0,0,1-.665.45l-2.65-1.81a0.434,0.434,0,0,0-.509,0l-2.651,1.81a0.424,0.424,0,0,1-.665-0.45l1.011-2.95a0.4,0.4,0,0,0-.156-0.46l-2.65-1.82a0.406,0.406,0,0,1,.254-0.74h3.276a0.427,0.427,0,0,0,.412-0.28l1.013-2.95a0.442,0.442,0,0,1,.821,0l1.012,2.95a0.427,0.427,0,0,0,.411.28h3.277a0.406,0.406,0,0,1,.253.74Zm-14.728,0a0.4,0.4,0,0,0-.156.46l1.012,2.95a0.424,0.424,0,0,1-.665.45l-2.65-1.81a0.435,0.435,0,0,0-.51,0l-2.65,1.81a0.424,0.424,0,0,1-.665-0.45l1.012-2.95a0.4,0.4,0,0,0-.157-0.46l-2.649-1.82a0.406,0.406,0,0,1,.253-0.74H485.7a0.428,0.428,0,0,0,.412-0.28l1.013-2.95a0.442,0.442,0,0,1,.821,0l1.012,2.95a0.428,0.428,0,0,0,.411.28h3.277a0.406,0.406,0,0,1,.253.74Z" transform="translate(-475 -1039)"/>
    </g>
    <path id="Фигура_2243" data-name="Фигура 2243" class="cls-5" d="M580.405,1079.25l-1.775,1.77h0l-3.049,3.05,0,0.01-35.227,35.23h0l-9.374,2.65a0.76,0.76,0,0,1-.975-0.73,0.725,0.725,0,0,1,.03-0.21l2.65-9.38h0l35.228-35.23,0-.01,3.05-3.05h0l1.773-1.77A5.423,5.423,0,0,1,580.405,1079.25Z" transform="translate(-475 -1039)"/>
  </g>
  <circle id="Эллипс_2229" data-name="Эллипс 2229" class="cls-6" cx="42" cy="17" r="17"/>
  <path id="Фигура_2229" data-name="Фигура 2229" class="cls-7" d="M519.82,1055.17h-0.234a4.924,4.924,0,0,0,2.423-4.23,5.008,5.008,0,0,0-10.016,0,4.926,4.926,0,0,0,2.423,4.23h-0.233a6.143,6.143,0,0,0-6.183,6.11v1.67a3.073,3.073,0,0,0,3.091,3.05h11.822a3.074,3.074,0,0,0,3.092-3.05v-1.67a6.145,6.145,0,0,0-6.185-6.11h0Zm0,0" transform="translate(-475 -1039)"/>
</svg>
